Coordinates
version=1
nRows=13
nColumns=40
inDegrees=yes

Units are S.I. units (second, meters, Newtons, ...)
Angles are in degrees.

endheader
time	pelvis_tilt	pelvis_list	pelvis_rotation	pelvis_tx	pelvis_ty	pelvis_tz	hip_flexion_r	hip_adduction_r	hip_rotation_r	knee_angle_r	knee_angle_r_beta	ankle_angle_r	subtalar_angle_r	mtp_angle_r	hip_flexion_l	hip_adduction_l	hip_rotation_l	knee_angle_l	knee_angle_l_beta	ankle_angle_l	subtalar_angle_l	mtp_angle_l	lumbar_extension	lumbar_bending	lumbar_rotation	arm_flex_r	arm_add_r	arm_rot_r	elbow_flex_r	pro_sup_r	wrist_flex_r	wrist_dev_r	arm_flex_l	arm_add_l	arm_rot_l	elbow_flex_l	pro_sup_l	wrist_flex_l	wrist_dev_l
     10.14500000	     -6.01327380	     -7.94272079	      6.28779806	      0.97450125	      0.91333680	      0.48457697	      1.71386077	      6.35185001	    -16.51946718	     10.79774304	     10.79774304	     17.55849523	      3.18542325	     -4.86189318	     36.48186678	     -9.39692818	      0.34554237	     19.57315532	     19.57315532	      6.12880634	     -7.57984217	     11.86983198	    -11.39003472	      6.59472035	      3.63861769	     45.71932233	    -14.70653876	      5.40005473	     91.30723778	     44.14866239	      0.00000000	      0.00000000	    -20.12059220	     -8.10933962	     -6.39694891	     24.73184984	     46.83903315	      0.00000000	      0.00000000
     10.15621429	     -6.08032854	     -7.87338871	      6.07136838	      0.97661983	      0.91169839	      0.48279700	      1.26698179	      6.16113847	    -16.10667437	     11.26084128	     11.26084128	     18.59968276	      3.06786210	     -3.41200737	     35.93636234	     -9.26076390	      0.02995691	     19.52545509	     19.52545509	      3.94274037	     -8.55254498	      8.77368040	    -11.04965792	      6.38398982	      3.92545153	     45.99907812	    -14.68035337	      5.68121222	     94.65500876	     44.09480342	      0.00000000	      0.00000000	    -20.89336991	     -8.20304498	     -5.89620045	     25.50220028	     46.70151939	      0.00000000	      0.00000000
     10.16742857	     -6.07282193	     -7.73292317	      5.86550117	      0.97867097	      0.91025986	      0.48085562	      0.81644546	      5.85206216	    -15.79608171	     11.87052299	     11.87052299	     19.53846223	      3.00119777	     -2.28252017	     35.41988839	     -9.08245805	     -0.18921748	     19.81760343	     19.81760343	      1.97276718	     -9.54510040	      6.06722541	    -10.78457393	      6.13457008	      3.90906260	     46.60057172	    -14.04294990	      5.79960905	     96.87300627	     44.10750644	      0.00000000	      0.00000000	    -21.44034845	     -8.20719575	     -4.98048692	     25.66781057	     46.50604462	      0.00000000	      0.00000000
     10.17864286	     -6.12431452	     -7.54899264	      5.67713482	      0.98051880	      0.90889967	      0.47880399	      0.50013362	      5.46476754	    -15.46356957	     12.54820546	     12.54820546	     20.05548166	      2.70219679	     -2.21585335	     35.23503710	     -8.87221841	     -0.32006877	     20.70861883	     20.70861883	      1.15684423	    -10.19708916	      5.70388857	    -10.48469886	      5.83187646	      3.61068953	     47.19065916	    -13.15586602	      6.12740193	     98.58765970	     44.06300706	      0.00000000	      0.00000000	    -21.84889671	     -8.04973113	     -4.77788814	     25.56721624	     46.45992003	      0.00000000	      0.00000000
     10.18985714	     -6.08229822	     -7.35264177	      5.49241234	      0.98228857	      0.90785699	      0.47660053	      0.18356720	      5.03330838	    -15.10257202	     13.39574638	     13.39574638	     20.51326389	      2.36195165	     -2.15864598	     35.05664134	     -8.65193169	     -0.27459075	     21.82922812	     21.82922812	      0.59478467	    -10.96402765	      5.28263953	    -10.32720164	      5.54479940	      3.47015079	     47.71682410	    -12.51077749	      6.42454354	    100.21473110	     44.01579892	      0.00000000	      0.00000000	    -22.01256096	     -7.92081781	     -4.65210083	     25.59159197	     46.43240042	      0.00000000	      0.00000000
     10.20107143	     -6.13522126	     -7.14279234	      5.32616776	      0.98380976	      0.90693870	      0.47427374	      0.17382367	      4.52270088	    -14.73582672	     14.60379935	     14.60379935	     20.98520387	      1.81022638	     -2.00899308	     35.00464978	     -8.36942637	     -0.07031488	     22.96153232	     22.96153232	      0.11939250	    -11.90334206	      4.70905777	    -10.14691124	      5.23994952	      3.34642382	     47.94594260	    -11.99180044	      6.85079412	    102.40674802	     43.95068517	      0.00000000	      0.00000000	    -22.02809499	     -7.77861342	     -4.49040707	     25.74440915	     46.40008390	      0.00000000	      0.00000000
     10.21228571	     -6.06745481	     -6.92316929	      5.14773609	      0.98529217	      0.90660696	      0.47179598	      0.14454698	      3.96623514	    -14.37305069	     16.02779922	     16.02779922	     21.65148136	      1.38928732	     -0.83590653	     34.75052932	     -8.07559730	      0.21427486	     23.97068447	     23.97068447	     -0.37968048	    -13.04829972	      3.43248782	    -10.15471962	      4.93285418	      3.96265699	     47.56280342	    -12.34358259	      6.84074709	    105.40900427	     44.02013025	      0.00000000	      0.00000000	    -21.52640764	     -8.04632665	     -2.91514755	     25.93003416	     46.13205939	      0.00000000	      0.00000000
     10.22350000	     -6.00395992	     -6.73226447	      5.01612459	      0.98646344	      0.90647727	      0.46913642	      0.30456157	      3.37607127	    -14.10649676	     17.70284728	     17.70284728	     21.74119281	      0.82267906	     -1.23569305	     34.65525924	     -7.81510820	      0.42546763	     25.23412317	     25.23412317	     -0.00427340	    -13.67775803	      3.32059089	    -10.16423514	      4.72779466	      3.73430311	     47.76782452	    -11.77814470	      7.25571683	    106.79509235	     43.97705107	      0.00000000	      0.00000000	    -21.19161871	     -7.84845846	     -2.79183093	     26.03833101	     46.11801538	      0.00000000	      0.00000000
     10.23471429	     -5.95765279	     -6.53001679	      4.88472458	      0.98750040	      0.90674469	      0.46640469	      0.66121145	      2.72937423	    -13.82090619	     19.66488358	     19.66488358	     21.59119448	      0.11701714	     -1.86937630	     34.47186322	     -7.52092325	      0.63090286	     26.30518668	     26.30518668	      0.69666653	    -14.28310282	      3.54421708	    -10.19196463	      4.46507904	      3.71752919	     47.48210999	    -11.56283645	      7.77563263	    108.51137499	     43.92361079	      0.00000000	      0.00000000	    -20.61283411	     -7.74465158	     -2.66655760	     26.20549899	     46.10854758	      0.00000000	      0.00000000
     10.24592857	     -5.84822742	     -6.35543934	      4.74521005	      0.98838748	      0.90739650	      0.46358239	      1.11709677	      2.05857657	    -13.58184830	     21.88918626	     21.88918626	     21.24508940	     -0.53767907	     -2.60451256	     34.16321539	     -7.27254450	      0.75955339	     27.26061691	     27.26061691	      1.52546911	    -14.71427157	      3.65552459	    -10.31815813	      4.26844348	      3.68652167	     47.25317080	    -11.34962065	      8.17514756	    109.87523539	     43.87948413	      0.00000000	      0.00000000	    -19.87588213	     -7.59787333	     -2.56043042	     26.37571838	     46.10478888	      0.00000000	      0.00000000
     10.25714286	     -5.84074418	     -6.19117958	      4.61580018	      0.98905968	      0.90827664	      0.46062973	      1.82069160	      1.37485358	    -13.28341203	     24.23391397	     24.23391397	     20.07373888	     -1.64087287	     -5.05161343	     33.89793454	     -6.97937917	      0.91920188	     28.10184625	     28.10184625	      3.01678436	    -14.92557058	      5.34177769	    -10.39769178	      4.08282990	      4.29516504	     46.21051166	    -12.21314096	      8.63459026	    112.79945086	     43.81801433	      0.00000000	      0.00000000	    -18.56788250	     -7.57972084	     -2.29072555	     26.44868382	     46.08741413	      0.00000000	      0.00000000
     10.26835714	     -5.62556791	     -6.07088450	      4.45430986	      0.98975457	      0.90958579	      0.45776346	      2.53790583	      0.65871219	    -13.13787714	     27.05570078	     27.05570078	     19.28700333	     -2.29772917	     -5.80806558	     33.24534256	     -6.83686769	      0.81302013	     28.62064951	     28.62064951	      3.91255343	    -15.06813264	      5.14389834	    -10.63011981	      3.98548756	      4.14602922	     45.67857456	    -11.74197947	      8.97805548	    113.27746102	     43.79742711	      0.00000000	      0.00000000	    -17.66812720	     -7.42386172	     -2.19754003	     26.67439615	     46.08829169	      0.00000000	      0.00000000
     10.27957143	     -5.77095656	     -5.88295014	      4.27868299	      0.99002095	      0.91060190	      0.45488265	      3.82141125	     -0.13575887	    -12.79174930	     29.92439592	     29.92439592	     16.66740103	     -4.22195777	    -10.86615965	     32.91414736	     -6.57628225	      0.62462481	     29.01191809	     29.01191809	      5.36315935	    -14.90255637	      6.67024380	    -10.55325936	      3.78545154	      4.62945673	     44.43361787	    -12.57001406	      9.36807067	    115.71579285	     43.78081583	      0.00000000	      0.00000000	    -16.28222520	     -7.38268607	     -1.90668743	     26.75929222	     46.06980853	      0.00000000	      0.00000000
